PathFileType	4	(X/Y/Z)	Patient4_TMGait_0pt4_03_left_11.trc.trc
DataRate	CameraRate	NumFrames	NumMarkers	Units	OrigDataRate	OrigDataStartFrame	OrigNumFrames
72.538860103627	72.538860103627	5	33	mm	72.538860103627	36	       141
Frame#	Time	Sacral			L.Shoulder			Chest			R.Shoulder			Neck			R.ASIS			L.ASIS			R.Thigh.Superior			R.Thigh.Lateral			R.Thigh.Inferior			R.Patella			L.Thigh.Superior			L.Thigh.Lateral			L.Thigh.Inferior			L.Patella			L.Shank.Superior			L.Shank.Lateral			L.Shank.Inferior			R.Shank.Superior			R.Shank.Lateral			R.Shank.Inferior			R.Heel			R.Midfoot.Superior			R.Midfoot.Lateral			R.Toe			L.Heel			L.Midfoot.Lateral			L.Midfoot.Superior			L.Toe			L.Elbow			L.Wrist			R.Elbow			R.Wrist			
		X1	Y1	Z1	X2	Y2	Z2	X3	Y3	Z3	X4	Y4	Z4	X5	Y5	Z5	X6	Y6	Z6	X7	Y7	Z7	X8	Y8	Z8	X9	Y9	Z9	X10	Y10	Z10	X11	Y11	Z11	X12	Y12	Z12	X13	Y13	Z13	X14	Y14	Z14	X15	Y15	Z15	X16	Y16	Z16	X17	Y17	Z17	X18	Y18	Z18	X19	Y19	Z19	X20	Y20	Z20	X21	Y21	Z21	X22	Y22	Z22	X23	Y23	Z23	X24	Y24	Z24	X25	Y25	Z25	X26	Y26	Z26	X27	Y27	Z27	X28	Y28	Z28	X29	Y29	Z29	X30	Y30	Z30	X31	Y31	Z31	X32	Y32	Z32	X33	Y33	Z33	

36	14.512500000000	814.449877118647	1004.774662640413	480.706070026462	965.979238420819	1430.436440812201	287.956936989000	1087.340505661793	1365.410620115085	437.134531843790	1022.029199957346	1435.930801111397	620.233108004746	962.522387477904	1492.576513082603	447.123457413477	1047.636949811517	938.172621085389	584.006093222692	1018.626057127944	957.411442691581	310.386208970509	1044.030982079321	725.033138453431	566.395131897501	939.895234181817	633.315898874171	633.002783080032	1004.478020262153	562.710278200675	559.540332149065	983.454100018052	469.116422110098	573.089055389126	1089.609271600006	764.075467694532	339.738013195350	1022.950333626302	637.023978587614	272.339822237197	1123.385754171974	572.059502273228	328.948261691639	1135.062238682512	499.765675074781	332.761101446947	1109.442475609162	425.313490066160	324.392424423053	1022.123719092579	309.565838348413	273.763850114602	1081.153040364939	197.015201823887	335.042739770606	925.465340764109	394.188392248891	580.987244590974	822.021315093438	322.164751981622	643.478775343210	835.336055643860	214.629615364528	587.643044018141	661.027598673430	81.851159979709	558.886772256909	838.075284951960	101.551796487355	599.854612614053	739.823178327068	52.773461368613	631.802590173714	944.644015197561	36.965999673266	624.600074230351	960.966281878620	39.060727022369	374.242596396407	1033.125105503604	36.419461091986	292.235045771487	1117.192415856548	97.876705108903	318.285602331721	1244.955239396463	44.038790311131	286.226616900378	871.834171446755	1088.178931834739	184.711451023444	910.866767584522	827.774552289853	200.772833088877	1096.540251758975	1101.084410952068	748.662329121331	1342.009334384788	1071.143432217493	693.951581253757	
37	14.526285714286	814.818503372739	1005.579684897225	476.204978867164	967.343143340636	1431.164371843656	283.768251839742	1088.009311055143	1366.252742171137	433.543411434716	1021.927158218489	1436.989126076854	616.253659147747	963.210683058556	1493.413909727329	442.910089451862	1047.650372539304	939.098135250620	580.293619837684	1019.703870406754	958.154024051901	306.671319120838	1046.256563844510	726.063427566806	563.581400861201	943.334650398265	633.582520244731	630.555562617192	1009.319568094464	563.094633714852	557.711645936108	989.248071910448	468.067397231055	572.837898672209	1089.693005101401	763.756666756693	335.620098678117	1020.784183542986	636.842758004260	269.844555465229	1120.625040728165	571.137474443053	326.324824393277	1131.583728897886	499.218131648279	331.240423650458	1105.901514730368	424.779015991660	323.115630312143	1018.488419179003	309.168531299525	272.416223572969	1076.490454347921	196.675810266197	334.679187466040	929.089295027612	394.226607354257	580.453825442371	823.676929855814	324.907142567670	642.650472396329	835.136637727429	216.656172374191	587.780776397428	657.793813904964	88.182567796377	559.260827310890	835.254991402267	102.430285175939	600.350084449876	735.650052834987	56.359620073336	631.980686112073	939.276410535493	36.712667112981	624.570479415214	955.523006446672	39.051591800350	374.177133700462	1027.649702125024	36.340024642922	292.122837387172	1111.777737191964	97.728012273746	318.222542757401	1239.566476126458	43.655036113029	286.077710658618	878.774051383687	1087.491351023157	178.607598603210	923.309231415869	827.867858802646	191.217697558575	1091.474760188094	1101.453938739979	746.138786767259	1336.469176953231	1060.724782512185	694.917384747753	
38	14.540071428571	815.000757658419	1006.404685452209	471.674275790142	968.854184538127	1431.904703265935	279.530194564920	1088.653580813853	1367.084659787680	430.025876003264	1021.642266862237	1438.050554453436	612.277617391740	963.856899288771	1494.257262097482	438.651681322293	1047.472151563894	940.058946667369	576.687866068636	1020.717895178684	958.865484474234	303.086250674663	1049.046159034873	727.276733989220	560.888926171887	947.666363834665	633.761039987723	628.189812223826	1015.300798900415	563.578560430553	555.976455774401	996.261070687496	467.062712220472	572.664267126744	1089.473470968976	763.232281757423	331.557597306655	1018.285099787625	636.695230293087	267.302842691470	1117.412091006799	570.203207348263	323.750374808565	1127.635143751117	498.660177934177	329.585404518040	1101.912317713322	424.268306549865	321.686757179987	1014.424709045848	308.718817732767	271.026626436411	1071.603491419585	196.338753719096	334.202148069533	933.893864827853	394.309570565886	579.981885374286	826.455104143890	327.983213797508	641.899934125026	835.770554065187	219.071910442682	587.979159295694	655.218663743757	95.720026430406	559.673527009511	832.884303759967	103.641408432385	600.878081403566	731.832482750730	60.842844402386	632.189915621263	933.890576484034	36.337175867153	624.571056504215	949.988252871681	39.026443146260	374.114079055216	1022.091809388426	36.223114095353	292.018367839217	1106.288820662065	97.535753294456	318.159805757306	1234.106332838977	43.235241928703	285.986845868485	886.018434480584	1086.971444898411	172.323110391688	936.328399442988	828.324247343313	181.626621866381	1085.942577569516	1101.777663623425	743.360934503128	1329.960403390637	1049.836996347527	695.818311570856	
39	14.553857142857	814.968333150013	1007.219313408814	467.168092090000	970.511886562488	1432.622703007474	275.277598210427	1089.266593506742	1367.859047289669	426.612498009092	1021.175721847504	1439.081413695341	608.331615338892	964.458299198353	1495.079202069911	434.368023384342	1047.073237188484	941.023018486549	573.209774778403	1021.612157580996	959.523982267820	299.650222426974	1052.399145247615	728.699295346509	558.318865032601	952.939607276990	633.871675782024	625.927020660206	1022.438728012257	564.210756093450	554.321412027475	1004.505011296580	466.171570746016	572.508862097326	1088.933624876900	762.563679798298	327.625650756233	1015.547290188510	636.622994566622	264.709819715311	1113.830494574248	569.300488630565	321.231308537582	1123.291114967673	498.109288693007	327.782098335187	1097.549450969656	423.792447438034	320.095065469685	1009.995331666997	308.242440482165	269.573407491791	1066.536070708479	196.020208496632	333.597850461684	939.916093106677	394.478436629718	579.533576178039	830.432352103180	331.438214053458	641.220512097656	837.282887428413	221.953893582784	588.218611709906	653.426235459932	104.599913579480	560.119302466594	831.005068552099	105.318417807865	601.428033742593	728.456582399081	66.373192712178	632.428128449912	928.509121523237	35.813434213541	624.615429591029	944.397744519611	38.994725749191	374.038478172043	1016.484629120545	36.082134763376	291.905253098959	1100.750915767804	97.324614275190	318.071663322725	1228.601321521715	42.818497931669	285.931166305346	893.575294956985	1086.615810444652	165.854967717548	949.934869291680	829.163284129495	172.109386559698	1079.931808572042	1102.021461555655	740.348425047012	1322.408987874506	1038.556912884006	696.650139769695	
40	14.567642857143	814.706588137577	1007.989660126236	462.737520578585	972.297095856510	1433.281466125352	271.051144774815	1089.834303065639	1368.534553144486	423.332653743200	1020.527135919261	1440.049204782535	604.445265238407	965.010451036483	1495.854477086223	430.082503978950	1046.437391333056	941.960053282549	569.883215981554	1022.342434870211	960.111624316784	296.383584528742	1056.273293904455	730.359199194047	555.858670377576	959.144189477130	633.956378079486	623.777106196895	1030.671022486198	565.052419412184	552.719142429610	1013.925324252722	465.477913221322	572.303049713399	1088.077840368950	761.811302276637	323.875581410823	1012.640017249547	636.641188869761	262.080546663788	1109.967258029640	568.455404484477	318.764091472407	1118.640869186571	497.577094246741	325.836986650626	1092.899095806931	423.355933003749	318.351361948393	1005.271584329032	307.761727507576	268.054309842537	1061.335279623570	195.730988224179	332.869655927073	947.128233206784	394.789865160389	579.062564053283	835.625776877556	335.308240821191	640.590410544248	839.686063484178	225.369121485911	588.465441845238	652.530381985970	114.883407174445	560.577700502239	829.657084826062	107.592212615387	601.973939925041	725.620376704837	73.057840789373	632.681971506999	923.183877442809	35.136621872845	624.708446713676	938.782822959477	38.963690640903	373.941678610556	1010.856377405603	35.929164307222	291.772843617846	1095.186290581703	97.115098043465	317.940751058539	1223.073871439222	42.434786319125	285.889921760778	901.446210929579	1086.412806905920	159.210848644702	964.135964543905	830.395002822788	162.768070153696	1073.443766899584	1102.156141373742	737.137823693865	1313.755570037661	1026.938262518084	697.438526700899	
